<mxfile host="Electron" modified="2024-03-21T04:38:31.265Z" agent="Mozilla/5.0 (Windows NT 10.0; Win64; x64) AppleWebKit/537.36 (KHTML, like Gecko) draw.io/24.0.4 Chrome/120.0.6099.109 Electron/28.1.0 Safari/537.36" etag="grju7X9X7B4ScL0Y-wFj" version="24.0.4" type="device">
  <diagram name="Page-1" id="42789a77-a242-8287-6e28-9cd8cfd52e62">
    <mxGraphModel dx="6350" dy="4040" grid="1" gridSize="10" guides="1" tooltips="1" connect="1" arrows="1" fold="1" page="1" pageScale="1" pageWidth="1100" pageHeight="850" background="none" math="0" shadow="0">
      <root>
        <mxCell id="0" />
        <mxCell id="1" parent="0" />
        <mxCell id="d27dbhYtVrHB6h_LEnZt-128" value="" style="edgeStyle=orthogonalEdgeStyle;rounded=0;orthogonalLoop=1;jettySize=auto;html=1;curved=1;" parent="1" source="d27dbhYtVrHB6h_LEnZt-127" target="1ea317790d2ca983-1" edge="1">
          <mxGeometry relative="1" as="geometry" />
        </mxCell>
        <mxCell id="d27dbhYtVrHB6h_LEnZt-136" value="Наследник" style="edgeLabel;html=1;align=center;verticalAlign=middle;resizable=0;points=[];" parent="d27dbhYtVrHB6h_LEnZt-128" vertex="1" connectable="0">
          <mxGeometry x="-0.0912" y="3" relative="1" as="geometry">
            <mxPoint as="offset" />
          </mxGeometry>
        </mxCell>
        <mxCell id="1ea317790d2ca983-1" value="Игрок" style="ellipse;whiteSpace=wrap;html=1;rounded=0;shadow=1;comic=0;labelBackgroundColor=none;strokeWidth=1;fontFamily=Verdana;fontSize=12;align=center;" parent="1" vertex="1">
          <mxGeometry x="-40" y="-400" width="90" height="60" as="geometry" />
        </mxCell>
        <mxCell id="d27dbhYtVrHB6h_LEnZt-6" style="edgeStyle=orthogonalEdgeStyle;rounded=0;orthogonalLoop=1;jettySize=auto;html=1;curved=1;" parent="1" source="1ea317790d2ca983-8" target="d27dbhYtVrHB6h_LEnZt-4" edge="1">
          <mxGeometry relative="1" as="geometry" />
        </mxCell>
        <mxCell id="d27dbhYtVrHB6h_LEnZt-7" value="Принадлежит" style="edgeLabel;html=1;align=center;verticalAlign=middle;resizable=0;points=[];" parent="d27dbhYtVrHB6h_LEnZt-6" vertex="1" connectable="0">
          <mxGeometry x="-0.1264" y="-3" relative="1" as="geometry">
            <mxPoint as="offset" />
          </mxGeometry>
        </mxCell>
        <mxCell id="d27dbhYtVrHB6h_LEnZt-9" style="edgeStyle=orthogonalEdgeStyle;rounded=0;orthogonalLoop=1;jettySize=auto;html=1;curved=1;" parent="1" source="1ea317790d2ca983-8" target="d27dbhYtVrHB6h_LEnZt-8" edge="1">
          <mxGeometry relative="1" as="geometry" />
        </mxCell>
        <mxCell id="d27dbhYtVrHB6h_LEnZt-13" value="Имеет" style="edgeLabel;html=1;align=center;verticalAlign=middle;resizable=0;points=[];" parent="d27dbhYtVrHB6h_LEnZt-9" vertex="1" connectable="0">
          <mxGeometry x="-0.1284" y="-1" relative="1" as="geometry">
            <mxPoint as="offset" />
          </mxGeometry>
        </mxCell>
        <mxCell id="d27dbhYtVrHB6h_LEnZt-11" style="edgeStyle=orthogonalEdgeStyle;rounded=0;orthogonalLoop=1;jettySize=auto;html=1;curved=1;" parent="1" source="1ea317790d2ca983-8" target="d27dbhYtVrHB6h_LEnZt-10" edge="1">
          <mxGeometry relative="1" as="geometry" />
        </mxCell>
        <mxCell id="d27dbhYtVrHB6h_LEnZt-46" value="Имеет" style="edgeLabel;html=1;align=center;verticalAlign=middle;resizable=0;points=[];" parent="d27dbhYtVrHB6h_LEnZt-11" vertex="1" connectable="0">
          <mxGeometry x="0.025" relative="1" as="geometry">
            <mxPoint as="offset" />
          </mxGeometry>
        </mxCell>
        <mxCell id="d27dbhYtVrHB6h_LEnZt-16" style="edgeStyle=orthogonalEdgeStyle;rounded=0;orthogonalLoop=1;jettySize=auto;html=1;curved=1;" parent="1" source="1ea317790d2ca983-8" target="d27dbhYtVrHB6h_LEnZt-15" edge="1">
          <mxGeometry relative="1" as="geometry" />
        </mxCell>
        <mxCell id="d27dbhYtVrHB6h_LEnZt-45" value="Имеет" style="edgeLabel;html=1;align=center;verticalAlign=middle;resizable=0;points=[];" parent="d27dbhYtVrHB6h_LEnZt-16" vertex="1" connectable="0">
          <mxGeometry x="-0.1429" relative="1" as="geometry">
            <mxPoint as="offset" />
          </mxGeometry>
        </mxCell>
        <mxCell id="d27dbhYtVrHB6h_LEnZt-114" style="edgeStyle=elbowEdgeStyle;rounded=0;orthogonalLoop=1;jettySize=auto;html=1;entryX=0.5;entryY=1;entryDx=0;entryDy=0;elbow=vertical;" parent="1" source="1ea317790d2ca983-8" target="d27dbhYtVrHB6h_LEnZt-112" edge="1">
          <mxGeometry relative="1" as="geometry">
            <Array as="points">
              <mxPoint x="330" y="120" />
            </Array>
          </mxGeometry>
        </mxCell>
        <mxCell id="d27dbhYtVrHB6h_LEnZt-118" value="Например" style="edgeLabel;html=1;align=center;verticalAlign=middle;resizable=0;points=[];" parent="d27dbhYtVrHB6h_LEnZt-114" vertex="1" connectable="0">
          <mxGeometry x="0.0025" y="3" relative="1" as="geometry">
            <mxPoint x="-15" y="120" as="offset" />
          </mxGeometry>
        </mxCell>
        <mxCell id="1ea317790d2ca983-8" value="Игра" style="ellipse;whiteSpace=wrap;html=1;rounded=0;shadow=1;comic=0;labelBackgroundColor=none;strokeWidth=1;fontFamily=Verdana;fontSize=12;align=center;" parent="1" vertex="1">
          <mxGeometry x="170" y="660" width="75" height="50" as="geometry" />
        </mxCell>
        <mxCell id="d27dbhYtVrHB6h_LEnZt-43" style="edgeStyle=orthogonalEdgeStyle;rounded=0;orthogonalLoop=1;jettySize=auto;html=1;entryX=0.5;entryY=0;entryDx=0;entryDy=0;curved=1;" parent="1" source="d27dbhYtVrHB6h_LEnZt-2" target="d27dbhYtVrHB6h_LEnZt-36" edge="1">
          <mxGeometry relative="1" as="geometry" />
        </mxCell>
        <mxCell id="d27dbhYtVrHB6h_LEnZt-44" value="Имеет" style="edgeLabel;html=1;align=center;verticalAlign=middle;resizable=0;points=[];" parent="d27dbhYtVrHB6h_LEnZt-43" vertex="1" connectable="0">
          <mxGeometry x="-0.225" y="-2" relative="1" as="geometry">
            <mxPoint as="offset" />
          </mxGeometry>
        </mxCell>
        <mxCell id="d27dbhYtVrHB6h_LEnZt-94" style="edgeStyle=orthogonalEdgeStyle;rounded=0;orthogonalLoop=1;jettySize=auto;html=1;curved=1;" parent="1" source="d27dbhYtVrHB6h_LEnZt-2" target="d27dbhYtVrHB6h_LEnZt-93" edge="1">
          <mxGeometry relative="1" as="geometry" />
        </mxCell>
        <mxCell id="8Imb64FayiIJfmBS5_kX-4" value="Например" style="edgeLabel;html=1;align=center;verticalAlign=middle;resizable=0;points=[];" parent="d27dbhYtVrHB6h_LEnZt-94" vertex="1" connectable="0">
          <mxGeometry x="-0.1437" y="-4" relative="1" as="geometry">
            <mxPoint as="offset" />
          </mxGeometry>
        </mxCell>
        <mxCell id="8Imb64FayiIJfmBS5_kX-7" style="edgeStyle=orthogonalEdgeStyle;rounded=0;orthogonalLoop=1;jettySize=auto;html=1;entryX=1;entryY=0.5;entryDx=0;entryDy=0;curved=1;" parent="1" source="d27dbhYtVrHB6h_LEnZt-2" target="8Imb64FayiIJfmBS5_kX-5" edge="1">
          <mxGeometry relative="1" as="geometry" />
        </mxCell>
        <mxCell id="8Imb64FayiIJfmBS5_kX-17" value="Например" style="edgeLabel;html=1;align=center;verticalAlign=middle;resizable=0;points=[];" parent="8Imb64FayiIJfmBS5_kX-7" vertex="1" connectable="0">
          <mxGeometry x="-0.0138" y="-2" relative="1" as="geometry">
            <mxPoint as="offset" />
          </mxGeometry>
        </mxCell>
        <mxCell id="8Imb64FayiIJfmBS5_kX-14" style="edgeStyle=orthogonalEdgeStyle;rounded=0;orthogonalLoop=1;jettySize=auto;html=1;exitX=1;exitY=0.5;exitDx=0;exitDy=0;entryX=0.5;entryY=0;entryDx=0;entryDy=0;curved=1;" parent="1" source="d27dbhYtVrHB6h_LEnZt-2" target="8Imb64FayiIJfmBS5_kX-13" edge="1">
          <mxGeometry relative="1" as="geometry" />
        </mxCell>
        <mxCell id="8Imb64FayiIJfmBS5_kX-16" value="Например" style="edgeLabel;html=1;align=center;verticalAlign=middle;resizable=0;points=[];" parent="8Imb64FayiIJfmBS5_kX-14" vertex="1" connectable="0">
          <mxGeometry x="-0.1594" y="-25" relative="1" as="geometry">
            <mxPoint as="offset" />
          </mxGeometry>
        </mxCell>
        <mxCell id="8RMeH3mRlZZ0QeaqOLW2-8" style="edgeStyle=orthogonalEdgeStyle;rounded=0;orthogonalLoop=1;jettySize=auto;html=1;entryX=1;entryY=0.5;entryDx=0;entryDy=0;curved=1;" parent="1" source="d27dbhYtVrHB6h_LEnZt-2" target="8RMeH3mRlZZ0QeaqOLW2-2" edge="1">
          <mxGeometry relative="1" as="geometry" />
        </mxCell>
        <mxCell id="O6C4yTjfF4UdwVnjmifp-4" style="edgeStyle=orthogonalEdgeStyle;rounded=0;orthogonalLoop=1;jettySize=auto;html=1;curved=1;" edge="1" parent="1" source="d27dbhYtVrHB6h_LEnZt-2" target="1ea317790d2ca983-8">
          <mxGeometry relative="1" as="geometry">
            <Array as="points">
              <mxPoint x="1650" y="-315" />
              <mxPoint x="1650" y="790" />
              <mxPoint x="208" y="790" />
            </Array>
          </mxGeometry>
        </mxCell>
        <mxCell id="d27dbhYtVrHB6h_LEnZt-2" value="Маркетплейс" style="ellipse;whiteSpace=wrap;html=1;rounded=0;shadow=1;comic=0;labelBackgroundColor=none;strokeWidth=1;fontFamily=Verdana;fontSize=12;align=center;" parent="1" vertex="1">
          <mxGeometry x="1400" y="-340" width="120" height="50" as="geometry" />
        </mxCell>
        <mxCell id="d27dbhYtVrHB6h_LEnZt-79" style="edgeStyle=orthogonalEdgeStyle;rounded=0;orthogonalLoop=1;jettySize=auto;html=1;curved=1;" parent="1" source="d27dbhYtVrHB6h_LEnZt-4" target="d27dbhYtVrHB6h_LEnZt-76" edge="1">
          <mxGeometry relative="1" as="geometry" />
        </mxCell>
        <mxCell id="d27dbhYtVrHB6h_LEnZt-88" value="Например" style="edgeLabel;html=1;align=center;verticalAlign=middle;resizable=0;points=[];" parent="d27dbhYtVrHB6h_LEnZt-79" vertex="1" connectable="0">
          <mxGeometry x="0.0404" y="-4" relative="1" as="geometry">
            <mxPoint as="offset" />
          </mxGeometry>
        </mxCell>
        <mxCell id="d27dbhYtVrHB6h_LEnZt-80" style="edgeStyle=orthogonalEdgeStyle;rounded=0;orthogonalLoop=1;jettySize=auto;html=1;curved=1;" parent="1" source="d27dbhYtVrHB6h_LEnZt-4" target="d27dbhYtVrHB6h_LEnZt-78" edge="1">
          <mxGeometry relative="1" as="geometry" />
        </mxCell>
        <mxCell id="d27dbhYtVrHB6h_LEnZt-90" value="Например" style="edgeLabel;html=1;align=center;verticalAlign=middle;resizable=0;points=[];" parent="d27dbhYtVrHB6h_LEnZt-80" vertex="1" connectable="0">
          <mxGeometry x="0.2164" y="5" relative="1" as="geometry">
            <mxPoint y="1" as="offset" />
          </mxGeometry>
        </mxCell>
        <mxCell id="d27dbhYtVrHB6h_LEnZt-81" style="edgeStyle=orthogonalEdgeStyle;rounded=0;orthogonalLoop=1;jettySize=auto;html=1;curved=1;" parent="1" source="d27dbhYtVrHB6h_LEnZt-4" target="d27dbhYtVrHB6h_LEnZt-77" edge="1">
          <mxGeometry relative="1" as="geometry" />
        </mxCell>
        <mxCell id="d27dbhYtVrHB6h_LEnZt-89" value="Например" style="edgeLabel;html=1;align=center;verticalAlign=middle;resizable=0;points=[];" parent="d27dbhYtVrHB6h_LEnZt-81" vertex="1" connectable="0">
          <mxGeometry x="0.3267" relative="1" as="geometry">
            <mxPoint as="offset" />
          </mxGeometry>
        </mxCell>
        <mxCell id="d27dbhYtVrHB6h_LEnZt-4" value="Жанр" style="ellipse;whiteSpace=wrap;html=1;rounded=0;shadow=1;comic=0;labelBackgroundColor=none;strokeWidth=1;fontFamily=Verdana;fontSize=12;align=center;" parent="1" vertex="1">
          <mxGeometry x="365" y="660" width="75" height="50" as="geometry" />
        </mxCell>
        <mxCell id="O6C4yTjfF4UdwVnjmifp-23" style="edgeStyle=orthogonalEdgeStyle;rounded=0;orthogonalLoop=1;jettySize=auto;html=1;" edge="1" parent="1" source="d27dbhYtVrHB6h_LEnZt-76" target="O6C4yTjfF4UdwVnjmifp-1">
          <mxGeometry relative="1" as="geometry">
            <Array as="points">
              <mxPoint x="543" y="280" />
              <mxPoint x="318" y="280" />
            </Array>
          </mxGeometry>
        </mxCell>
        <mxCell id="d27dbhYtVrHB6h_LEnZt-76" value="MOBA" style="ellipse;whiteSpace=wrap;html=1;rounded=0;shadow=1;comic=0;labelBackgroundColor=none;strokeWidth=1;fontFamily=Verdana;fontSize=12;align=center;" parent="1" vertex="1">
          <mxGeometry x="505" y="610" width="75" height="50" as="geometry" />
        </mxCell>
        <mxCell id="O6C4yTjfF4UdwVnjmifp-16" style="edgeStyle=orthogonalEdgeStyle;rounded=0;orthogonalLoop=1;jettySize=auto;html=1;" edge="1" parent="1" source="d27dbhYtVrHB6h_LEnZt-77" target="8RMeH3mRlZZ0QeaqOLW2-10">
          <mxGeometry relative="1" as="geometry">
            <Array as="points">
              <mxPoint x="640" y="685" />
              <mxPoint x="640" y="160" />
              <mxPoint x="-42" y="160" />
            </Array>
          </mxGeometry>
        </mxCell>
        <mxCell id="d27dbhYtVrHB6h_LEnZt-77" value="Sandbox" style="ellipse;whiteSpace=wrap;html=1;rounded=0;shadow=1;comic=0;labelBackgroundColor=none;strokeWidth=1;fontFamily=Verdana;fontSize=12;align=center;" parent="1" vertex="1">
          <mxGeometry x="505" y="660" width="75" height="50" as="geometry" />
        </mxCell>
        <mxCell id="O6C4yTjfF4UdwVnjmifp-20" style="edgeStyle=orthogonalEdgeStyle;rounded=0;orthogonalLoop=1;jettySize=auto;html=1;" edge="1" parent="1" source="d27dbhYtVrHB6h_LEnZt-78" target="O6C4yTjfF4UdwVnjmifp-3">
          <mxGeometry relative="1" as="geometry">
            <Array as="points">
              <mxPoint x="600" y="735" />
              <mxPoint x="600" y="200" />
              <mxPoint x="78" y="200" />
            </Array>
          </mxGeometry>
        </mxCell>
        <mxCell id="d27dbhYtVrHB6h_LEnZt-78" value="Horror" style="ellipse;whiteSpace=wrap;html=1;rounded=0;shadow=1;comic=0;labelBackgroundColor=none;strokeWidth=1;fontFamily=Verdana;fontSize=12;align=center;" parent="1" vertex="1">
          <mxGeometry x="505" y="710" width="75" height="50" as="geometry" />
        </mxCell>
        <mxCell id="d27dbhYtVrHB6h_LEnZt-50" style="edgeStyle=orthogonalEdgeStyle;rounded=0;orthogonalLoop=1;jettySize=auto;html=1;entryX=1;entryY=0.5;entryDx=0;entryDy=0;curved=1;" parent="1" source="d27dbhYtVrHB6h_LEnZt-8" target="d27dbhYtVrHB6h_LEnZt-49" edge="1">
          <mxGeometry relative="1" as="geometry" />
        </mxCell>
        <mxCell id="d27dbhYtVrHB6h_LEnZt-51" value="Например" style="edgeLabel;html=1;align=center;verticalAlign=middle;resizable=0;points=[];" parent="d27dbhYtVrHB6h_LEnZt-50" vertex="1" connectable="0">
          <mxGeometry x="0.0174" y="-3" relative="1" as="geometry">
            <mxPoint y="1" as="offset" />
          </mxGeometry>
        </mxCell>
        <mxCell id="d27dbhYtVrHB6h_LEnZt-91" style="edgeStyle=orthogonalEdgeStyle;rounded=0;orthogonalLoop=1;jettySize=auto;html=1;curved=1;" parent="1" source="d27dbhYtVrHB6h_LEnZt-8" target="d27dbhYtVrHB6h_LEnZt-41" edge="1">
          <mxGeometry relative="1" as="geometry" />
        </mxCell>
        <mxCell id="d27dbhYtVrHB6h_LEnZt-92" value="Например" style="edgeLabel;html=1;align=center;verticalAlign=middle;resizable=0;points=[];" parent="d27dbhYtVrHB6h_LEnZt-91" vertex="1" connectable="0">
          <mxGeometry x="-0.0006" y="4" relative="1" as="geometry">
            <mxPoint as="offset" />
          </mxGeometry>
        </mxCell>
        <mxCell id="d27dbhYtVrHB6h_LEnZt-8" value="Цена" style="ellipse;whiteSpace=wrap;html=1;rounded=0;shadow=1;comic=0;labelBackgroundColor=none;strokeWidth=1;fontFamily=Verdana;fontSize=12;align=center;" parent="1" vertex="1">
          <mxGeometry y="660" width="75" height="50" as="geometry" />
        </mxCell>
        <mxCell id="d27dbhYtVrHB6h_LEnZt-52" style="edgeStyle=orthogonalEdgeStyle;rounded=0;orthogonalLoop=1;jettySize=auto;html=1;entryX=0.5;entryY=0;entryDx=0;entryDy=0;curved=1;" parent="1" source="d27dbhYtVrHB6h_LEnZt-10" target="d27dbhYtVrHB6h_LEnZt-35" edge="1">
          <mxGeometry relative="1" as="geometry" />
        </mxCell>
        <mxCell id="d27dbhYtVrHB6h_LEnZt-53" value="Например" style="edgeLabel;html=1;align=center;verticalAlign=middle;resizable=0;points=[];" parent="d27dbhYtVrHB6h_LEnZt-52" vertex="1" connectable="0">
          <mxGeometry x="0.2851" y="17" relative="1" as="geometry">
            <mxPoint y="1" as="offset" />
          </mxGeometry>
        </mxCell>
        <mxCell id="d27dbhYtVrHB6h_LEnZt-56" style="edgeStyle=orthogonalEdgeStyle;rounded=0;orthogonalLoop=1;jettySize=auto;html=1;curved=1;" parent="1" source="d27dbhYtVrHB6h_LEnZt-10" target="d27dbhYtVrHB6h_LEnZt-42" edge="1">
          <mxGeometry relative="1" as="geometry">
            <mxPoint x="210" y="890" as="targetPoint" />
          </mxGeometry>
        </mxCell>
        <mxCell id="d27dbhYtVrHB6h_LEnZt-57" value="Например" style="edgeLabel;html=1;align=center;verticalAlign=middle;resizable=0;points=[];" parent="d27dbhYtVrHB6h_LEnZt-56" vertex="1" connectable="0">
          <mxGeometry x="-0.0906" relative="1" as="geometry">
            <mxPoint as="offset" />
          </mxGeometry>
        </mxCell>
        <mxCell id="d27dbhYtVrHB6h_LEnZt-82" style="edgeStyle=orthogonalEdgeStyle;rounded=0;orthogonalLoop=1;jettySize=auto;html=1;curved=1;" parent="1" source="d27dbhYtVrHB6h_LEnZt-10" target="d27dbhYtVrHB6h_LEnZt-34" edge="1">
          <mxGeometry relative="1" as="geometry" />
        </mxCell>
        <mxCell id="d27dbhYtVrHB6h_LEnZt-84" value="Например" style="edgeLabel;html=1;align=center;verticalAlign=middle;resizable=0;points=[];" parent="d27dbhYtVrHB6h_LEnZt-82" vertex="1" connectable="0">
          <mxGeometry x="-0.3377" y="-12" relative="1" as="geometry">
            <mxPoint as="offset" />
          </mxGeometry>
        </mxCell>
        <mxCell id="d27dbhYtVrHB6h_LEnZt-10" value="Mode" style="ellipse;whiteSpace=wrap;html=1;rounded=0;shadow=1;comic=0;labelBackgroundColor=none;strokeWidth=1;fontFamily=Verdana;fontSize=12;align=center;" parent="1" vertex="1">
          <mxGeometry x="170" y="780" width="75" height="50" as="geometry" />
        </mxCell>
        <mxCell id="d27dbhYtVrHB6h_LEnZt-73" style="edgeStyle=orthogonalEdgeStyle;rounded=0;orthogonalLoop=1;jettySize=auto;html=1;curved=1;" parent="1" source="d27dbhYtVrHB6h_LEnZt-15" edge="1">
          <mxGeometry relative="1" as="geometry">
            <mxPoint x="282.5" y="490" as="targetPoint" />
          </mxGeometry>
        </mxCell>
        <mxCell id="d27dbhYtVrHB6h_LEnZt-85" value="Например" style="edgeLabel;html=1;align=center;verticalAlign=middle;resizable=0;points=[];" parent="d27dbhYtVrHB6h_LEnZt-73" vertex="1" connectable="0">
          <mxGeometry x="0.1817" y="-4" relative="1" as="geometry">
            <mxPoint as="offset" />
          </mxGeometry>
        </mxCell>
        <mxCell id="d27dbhYtVrHB6h_LEnZt-74" style="edgeStyle=orthogonalEdgeStyle;rounded=0;orthogonalLoop=1;jettySize=auto;html=1;curved=1;" parent="1" source="d27dbhYtVrHB6h_LEnZt-15" edge="1">
          <mxGeometry relative="1" as="geometry">
            <mxPoint x="132.5" y="490" as="targetPoint" />
          </mxGeometry>
        </mxCell>
        <mxCell id="d27dbhYtVrHB6h_LEnZt-87" value="Например" style="edgeLabel;html=1;align=center;verticalAlign=middle;resizable=0;points=[];" parent="d27dbhYtVrHB6h_LEnZt-74" vertex="1" connectable="0">
          <mxGeometry x="0.0301" y="3" relative="1" as="geometry">
            <mxPoint as="offset" />
          </mxGeometry>
        </mxCell>
        <mxCell id="d27dbhYtVrHB6h_LEnZt-75" style="edgeStyle=orthogonalEdgeStyle;rounded=0;orthogonalLoop=1;jettySize=auto;html=1;curved=1;" parent="1" source="d27dbhYtVrHB6h_LEnZt-15" target="d27dbhYtVrHB6h_LEnZt-64" edge="1">
          <mxGeometry relative="1" as="geometry" />
        </mxCell>
        <mxCell id="d27dbhYtVrHB6h_LEnZt-86" value="Например" style="edgeLabel;html=1;align=center;verticalAlign=middle;resizable=0;points=[];" parent="d27dbhYtVrHB6h_LEnZt-75" vertex="1" connectable="0">
          <mxGeometry x="0.149" y="-1" relative="1" as="geometry">
            <mxPoint as="offset" />
          </mxGeometry>
        </mxCell>
        <mxCell id="d27dbhYtVrHB6h_LEnZt-15" value="Сеттинг" style="ellipse;whiteSpace=wrap;html=1;rounded=0;shadow=1;comic=0;labelBackgroundColor=none;strokeWidth=1;fontFamily=Verdana;fontSize=12;align=center;" parent="1" vertex="1">
          <mxGeometry x="170" y="540" width="75" height="50" as="geometry" />
        </mxCell>
        <mxCell id="d27dbhYtVrHB6h_LEnZt-34" value="Multiplayer" style="ellipse;whiteSpace=wrap;html=1;rounded=0;shadow=1;comic=0;labelBackgroundColor=none;strokeWidth=1;fontFamily=Verdana;fontSize=12;align=center;" parent="1" vertex="1">
          <mxGeometry x="303" y="890" width="95" height="60" as="geometry" />
        </mxCell>
        <mxCell id="d27dbhYtVrHB6h_LEnZt-35" value="Кооператив" style="ellipse;whiteSpace=wrap;html=1;rounded=0;shadow=1;comic=0;labelBackgroundColor=none;strokeWidth=1;fontFamily=Verdana;fontSize=12;align=center;" parent="1" vertex="1">
          <mxGeometry x="20" y="890" width="85" height="60" as="geometry" />
        </mxCell>
        <mxCell id="d27dbhYtVrHB6h_LEnZt-100" value="" style="edgeStyle=orthogonalEdgeStyle;rounded=0;orthogonalLoop=1;jettySize=auto;html=1;curved=1;" parent="1" source="d27dbhYtVrHB6h_LEnZt-36" target="d27dbhYtVrHB6h_LEnZt-99" edge="1">
          <mxGeometry relative="1" as="geometry" />
        </mxCell>
        <mxCell id="d27dbhYtVrHB6h_LEnZt-106" value="Например" style="edgeLabel;html=1;align=center;verticalAlign=middle;resizable=0;points=[];" parent="d27dbhYtVrHB6h_LEnZt-100" vertex="1" connectable="0">
          <mxGeometry x="0.084" y="-2" relative="1" as="geometry">
            <mxPoint as="offset" />
          </mxGeometry>
        </mxCell>
        <mxCell id="d27dbhYtVrHB6h_LEnZt-101" style="edgeStyle=orthogonalEdgeStyle;rounded=0;orthogonalLoop=1;jettySize=auto;html=1;curved=1;entryX=0.5;entryY=0;entryDx=0;entryDy=0;" parent="1" source="d27dbhYtVrHB6h_LEnZt-36" target="d27dbhYtVrHB6h_LEnZt-102" edge="1">
          <mxGeometry relative="1" as="geometry">
            <mxPoint x="1499.9999999999995" y="-30" as="targetPoint" />
          </mxGeometry>
        </mxCell>
        <mxCell id="d27dbhYtVrHB6h_LEnZt-105" value="Например" style="edgeLabel;html=1;align=center;verticalAlign=middle;resizable=0;points=[];" parent="d27dbhYtVrHB6h_LEnZt-101" vertex="1" connectable="0">
          <mxGeometry x="-0.1848" relative="1" as="geometry">
            <mxPoint x="1" as="offset" />
          </mxGeometry>
        </mxCell>
        <mxCell id="d27dbhYtVrHB6h_LEnZt-36" value="Лицензированность" style="ellipse;whiteSpace=wrap;html=1;rounded=0;shadow=1;comic=0;labelBackgroundColor=none;strokeWidth=1;fontFamily=Verdana;fontSize=12;align=center;" parent="1" vertex="1">
          <mxGeometry x="1386.25" y="-220" width="147.5" height="50" as="geometry" />
        </mxCell>
        <mxCell id="d27dbhYtVrHB6h_LEnZt-109" style="edgeStyle=orthogonalEdgeStyle;rounded=0;orthogonalLoop=1;jettySize=auto;html=1;entryX=0;entryY=0.5;entryDx=0;entryDy=0;curved=1;" parent="1" source="d27dbhYtVrHB6h_LEnZt-93" target="d27dbhYtVrHB6h_LEnZt-99" edge="1">
          <mxGeometry relative="1" as="geometry" />
        </mxCell>
        <mxCell id="d27dbhYtVrHB6h_LEnZt-110" value="Имеет" style="edgeLabel;html=1;align=center;verticalAlign=middle;resizable=0;points=[];" parent="d27dbhYtVrHB6h_LEnZt-109" vertex="1" connectable="0">
          <mxGeometry x="-0.3827" y="-4" relative="1" as="geometry">
            <mxPoint y="20" as="offset" />
          </mxGeometry>
        </mxCell>
        <mxCell id="d27dbhYtVrHB6h_LEnZt-117" style="edgeStyle=orthogonalEdgeStyle;rounded=0;orthogonalLoop=1;jettySize=auto;html=1;" parent="1" source="d27dbhYtVrHB6h_LEnZt-93" target="d27dbhYtVrHB6h_LEnZt-112" edge="1">
          <mxGeometry relative="1" as="geometry">
            <Array as="points">
              <mxPoint x="1159" y="-240" />
              <mxPoint x="431" y="-240" />
            </Array>
          </mxGeometry>
        </mxCell>
        <mxCell id="d27dbhYtVrHB6h_LEnZt-124" value="Распространяет" style="edgeLabel;html=1;align=center;verticalAlign=middle;resizable=0;points=[];" parent="d27dbhYtVrHB6h_LEnZt-117" vertex="1" connectable="0">
          <mxGeometry x="0.0053" y="2" relative="1" as="geometry">
            <mxPoint as="offset" />
          </mxGeometry>
        </mxCell>
        <mxCell id="O6C4yTjfF4UdwVnjmifp-9" style="edgeStyle=orthogonalEdgeStyle;rounded=0;orthogonalLoop=1;jettySize=auto;html=1;" edge="1" parent="1" source="d27dbhYtVrHB6h_LEnZt-93" target="8RMeH3mRlZZ0QeaqOLW2-9">
          <mxGeometry relative="1" as="geometry">
            <Array as="points">
              <mxPoint x="1159" y="-240" />
              <mxPoint x="203" y="-240" />
            </Array>
          </mxGeometry>
        </mxCell>
        <mxCell id="O6C4yTjfF4UdwVnjmifp-10" style="edgeStyle=orthogonalEdgeStyle;rounded=0;orthogonalLoop=1;jettySize=auto;html=1;" edge="1" parent="1" source="d27dbhYtVrHB6h_LEnZt-93" target="O6C4yTjfF4UdwVnjmifp-3">
          <mxGeometry relative="1" as="geometry">
            <Array as="points">
              <mxPoint x="1159" y="-240" />
              <mxPoint x="78" y="-240" />
            </Array>
          </mxGeometry>
        </mxCell>
        <mxCell id="d27dbhYtVrHB6h_LEnZt-93" value="Steam" style="ellipse;whiteSpace=wrap;html=1;rounded=0;shadow=1;comic=0;labelBackgroundColor=none;strokeWidth=1;fontFamily=Verdana;fontSize=12;align=center;" parent="1" vertex="1">
          <mxGeometry x="1121" y="-340" width="75" height="50" as="geometry" />
        </mxCell>
        <mxCell id="O6C4yTjfF4UdwVnjmifp-26" style="edgeStyle=orthogonalEdgeStyle;rounded=0;orthogonalLoop=1;jettySize=auto;html=1;" edge="1" parent="1" source="d27dbhYtVrHB6h_LEnZt-41" target="O6C4yTjfF4UdwVnjmifp-1">
          <mxGeometry relative="1" as="geometry">
            <Array as="points">
              <mxPoint x="-102" y="280" />
              <mxPoint x="317" y="280" />
            </Array>
          </mxGeometry>
        </mxCell>
        <mxCell id="d27dbhYtVrHB6h_LEnZt-41" value="Бесплатно" style="ellipse;whiteSpace=wrap;html=1;rounded=0;shadow=1;comic=0;labelBackgroundColor=none;strokeWidth=1;fontFamily=Verdana;fontSize=12;align=center;" parent="1" vertex="1">
          <mxGeometry x="-140" y="610" width="75" height="50" as="geometry" />
        </mxCell>
        <mxCell id="O6C4yTjfF4UdwVnjmifp-18" style="edgeStyle=orthogonalEdgeStyle;rounded=0;orthogonalLoop=1;jettySize=auto;html=1;" edge="1" parent="1" source="d27dbhYtVrHB6h_LEnZt-42" target="8RMeH3mRlZZ0QeaqOLW2-10">
          <mxGeometry relative="1" as="geometry">
            <Array as="points">
              <mxPoint x="208" y="960" />
              <mxPoint x="720" y="960" />
              <mxPoint x="720" y="160" />
              <mxPoint x="-42" y="160" />
            </Array>
          </mxGeometry>
        </mxCell>
        <mxCell id="O6C4yTjfF4UdwVnjmifp-24" style="edgeStyle=orthogonalEdgeStyle;rounded=0;orthogonalLoop=1;jettySize=auto;html=1;entryX=0.5;entryY=1;entryDx=0;entryDy=0;" edge="1" parent="1" source="d27dbhYtVrHB6h_LEnZt-42" target="d27dbhYtVrHB6h_LEnZt-112">
          <mxGeometry relative="1" as="geometry">
            <Array as="points">
              <mxPoint x="680" y="920" />
              <mxPoint x="680" y="120" />
              <mxPoint x="431" y="120" />
            </Array>
          </mxGeometry>
        </mxCell>
        <mxCell id="d27dbhYtVrHB6h_LEnZt-42" value="Singleplayer" style="ellipse;whiteSpace=wrap;html=1;rounded=0;shadow=1;comic=0;labelBackgroundColor=none;strokeWidth=1;fontFamily=Verdana;fontSize=12;align=center;" parent="1" vertex="1">
          <mxGeometry x="161.88" y="890" width="91.25" height="60" as="geometry" />
        </mxCell>
        <mxCell id="O6C4yTjfF4UdwVnjmifp-15" style="edgeStyle=orthogonalEdgeStyle;rounded=0;orthogonalLoop=1;jettySize=auto;html=1;" edge="1" parent="1" source="d27dbhYtVrHB6h_LEnZt-49" target="8RMeH3mRlZZ0QeaqOLW2-10">
          <mxGeometry relative="1" as="geometry">
            <Array as="points">
              <mxPoint x="-200" y="735" />
              <mxPoint x="-200" y="160" />
              <mxPoint x="-42" y="160" />
            </Array>
          </mxGeometry>
        </mxCell>
        <mxCell id="O6C4yTjfF4UdwVnjmifp-25" style="edgeStyle=orthogonalEdgeStyle;rounded=0;orthogonalLoop=1;jettySize=auto;html=1;" edge="1" parent="1" source="d27dbhYtVrHB6h_LEnZt-49" target="O6C4yTjfF4UdwVnjmifp-3">
          <mxGeometry relative="1" as="geometry">
            <Array as="points">
              <mxPoint x="-200" y="735" />
              <mxPoint x="-200" y="200" />
              <mxPoint x="77" y="200" />
            </Array>
          </mxGeometry>
        </mxCell>
        <mxCell id="O6C4yTjfF4UdwVnjmifp-27" style="edgeStyle=orthogonalEdgeStyle;rounded=0;orthogonalLoop=1;jettySize=auto;html=1;entryX=0.5;entryY=1;entryDx=0;entryDy=0;" edge="1" parent="1" source="d27dbhYtVrHB6h_LEnZt-49" target="8RMeH3mRlZZ0QeaqOLW2-9">
          <mxGeometry relative="1" as="geometry">
            <Array as="points">
              <mxPoint x="-200" y="735" />
              <mxPoint x="-200" y="240" />
              <mxPoint x="202" y="240" />
            </Array>
          </mxGeometry>
        </mxCell>
        <mxCell id="d27dbhYtVrHB6h_LEnZt-49" value="2000" style="ellipse;whiteSpace=wrap;html=1;rounded=0;shadow=1;comic=0;labelBackgroundColor=none;strokeWidth=1;fontFamily=Verdana;fontSize=12;align=center;" parent="1" vertex="1">
          <mxGeometry x="-140" y="710" width="75" height="50" as="geometry" />
        </mxCell>
        <mxCell id="O6C4yTjfF4UdwVnjmifp-19" style="edgeStyle=orthogonalEdgeStyle;rounded=0;orthogonalLoop=1;jettySize=auto;html=1;" edge="1" parent="1" source="d27dbhYtVrHB6h_LEnZt-64" target="O6C4yTjfF4UdwVnjmifp-3">
          <mxGeometry relative="1" as="geometry">
            <Array as="points">
              <mxPoint x="205" y="200" />
              <mxPoint x="78" y="200" />
            </Array>
          </mxGeometry>
        </mxCell>
        <mxCell id="O6C4yTjfF4UdwVnjmifp-22" style="edgeStyle=orthogonalEdgeStyle;rounded=0;orthogonalLoop=1;jettySize=auto;html=1;entryX=0.5;entryY=1;entryDx=0;entryDy=0;" edge="1" parent="1" source="d27dbhYtVrHB6h_LEnZt-64" target="8RMeH3mRlZZ0QeaqOLW2-9">
          <mxGeometry relative="1" as="geometry">
            <Array as="points">
              <mxPoint x="205" y="70" />
            </Array>
          </mxGeometry>
        </mxCell>
        <mxCell id="d27dbhYtVrHB6h_LEnZt-64" value="Sci-fi" style="ellipse;whiteSpace=wrap;html=1;rounded=0;shadow=1;comic=0;labelBackgroundColor=none;strokeWidth=1;fontFamily=Verdana;fontSize=12;align=center;" parent="1" vertex="1">
          <mxGeometry x="167.5" y="399" width="75" height="50" as="geometry" />
        </mxCell>
        <mxCell id="O6C4yTjfF4UdwVnjmifp-28" style="edgeStyle=orthogonalEdgeStyle;rounded=0;orthogonalLoop=1;jettySize=auto;html=1;" edge="1" parent="1" source="d27dbhYtVrHB6h_LEnZt-71" target="O6C4yTjfF4UdwVnjmifp-1">
          <mxGeometry relative="1" as="geometry">
            <Array as="points">
              <mxPoint x="114" y="280" />
              <mxPoint x="317" y="280" />
            </Array>
          </mxGeometry>
        </mxCell>
        <mxCell id="d27dbhYtVrHB6h_LEnZt-71" value="Современность" style="ellipse;whiteSpace=wrap;html=1;rounded=0;shadow=1;comic=0;labelBackgroundColor=none;strokeWidth=1;fontFamily=Verdana;fontSize=12;align=center;" parent="1" vertex="1">
          <mxGeometry x="60" y="439" width="107.5" height="50" as="geometry" />
        </mxCell>
        <mxCell id="O6C4yTjfF4UdwVnjmifp-14" style="edgeStyle=orthogonalEdgeStyle;rounded=0;orthogonalLoop=1;jettySize=auto;html=1;" edge="1" parent="1" source="d27dbhYtVrHB6h_LEnZt-72" target="8RMeH3mRlZZ0QeaqOLW2-10">
          <mxGeometry relative="1" as="geometry">
            <Array as="points">
              <mxPoint x="280" y="160" />
              <mxPoint x="-42" y="160" />
            </Array>
          </mxGeometry>
        </mxCell>
        <mxCell id="d27dbhYtVrHB6h_LEnZt-72" value="Fantasy" style="ellipse;whiteSpace=wrap;html=1;rounded=0;shadow=1;comic=0;labelBackgroundColor=none;strokeWidth=1;fontFamily=Verdana;fontSize=12;align=center;" parent="1" vertex="1">
          <mxGeometry x="242.5" y="439" width="75" height="50" as="geometry" />
        </mxCell>
        <mxCell id="8RMeH3mRlZZ0QeaqOLW2-7" style="edgeStyle=orthogonalEdgeStyle;rounded=0;orthogonalLoop=1;jettySize=auto;html=1;curved=1;" parent="1" source="d27dbhYtVrHB6h_LEnZt-99" target="8RMeH3mRlZZ0QeaqOLW2-2" edge="1">
          <mxGeometry relative="1" as="geometry" />
        </mxCell>
        <mxCell id="d27dbhYtVrHB6h_LEnZt-99" value="Лицензированый" style="ellipse;whiteSpace=wrap;html=1;rounded=0;shadow=1;comic=0;labelBackgroundColor=none;strokeWidth=1;fontFamily=Verdana;fontSize=12;align=center;" parent="1" vertex="1">
          <mxGeometry x="1321.25" y="-109" width="117.5" height="50" as="geometry" />
        </mxCell>
        <mxCell id="d27dbhYtVrHB6h_LEnZt-102" value="Пиратский" style="ellipse;whiteSpace=wrap;html=1;rounded=0;shadow=1;comic=0;labelBackgroundColor=none;strokeWidth=1;fontFamily=Verdana;fontSize=12;align=center;" parent="1" vertex="1">
          <mxGeometry x="1481.25" y="-109" width="117.5" height="50" as="geometry" />
        </mxCell>
        <mxCell id="d27dbhYtVrHB6h_LEnZt-119" style="edgeStyle=elbowEdgeStyle;rounded=0;orthogonalLoop=1;jettySize=auto;html=1;entryX=0.5;entryY=0;entryDx=0;entryDy=0;exitX=0.5;exitY=1;exitDx=0;exitDy=0;elbow=vertical;" parent="1" source="d27dbhYtVrHB6h_LEnZt-112" target="d27dbhYtVrHB6h_LEnZt-72" edge="1">
          <mxGeometry relative="1" as="geometry">
            <Array as="points">
              <mxPoint x="360" y="120" />
            </Array>
          </mxGeometry>
        </mxCell>
        <mxCell id="d27dbhYtVrHB6h_LEnZt-123" value="Имеет" style="edgeLabel;html=1;align=center;verticalAlign=middle;resizable=0;points=[];" parent="d27dbhYtVrHB6h_LEnZt-119" vertex="1" connectable="0">
          <mxGeometry x="0.3721" y="-3" relative="1" as="geometry">
            <mxPoint as="offset" />
          </mxGeometry>
        </mxCell>
        <mxCell id="d27dbhYtVrHB6h_LEnZt-120" style="edgeStyle=elbowEdgeStyle;rounded=0;orthogonalLoop=1;jettySize=auto;html=1;entryX=0.5;entryY=0;entryDx=0;entryDy=0;exitX=0.5;exitY=1;exitDx=0;exitDy=0;elbow=vertical;" parent="1" source="d27dbhYtVrHB6h_LEnZt-112" target="d27dbhYtVrHB6h_LEnZt-41" edge="1">
          <mxGeometry relative="1" as="geometry">
            <Array as="points">
              <mxPoint x="160" y="120" />
            </Array>
          </mxGeometry>
        </mxCell>
        <mxCell id="d27dbhYtVrHB6h_LEnZt-122" value="Имеет" style="edgeLabel;html=1;align=center;verticalAlign=middle;resizable=0;points=[];" parent="d27dbhYtVrHB6h_LEnZt-120" vertex="1" connectable="0">
          <mxGeometry x="-0.6153" y="3" relative="1" as="geometry">
            <mxPoint x="-376" y="177" as="offset" />
          </mxGeometry>
        </mxCell>
        <mxCell id="d27dbhYtVrHB6h_LEnZt-137" style="edgeStyle=elbowEdgeStyle;rounded=0;orthogonalLoop=1;jettySize=auto;html=1;entryX=0.5;entryY=0;entryDx=0;entryDy=0;exitX=0.5;exitY=0;exitDx=0;exitDy=0;elbow=vertical;" parent="1" source="d27dbhYtVrHB6h_LEnZt-112" target="d27dbhYtVrHB6h_LEnZt-76" edge="1">
          <mxGeometry relative="1" as="geometry">
            <mxPoint x="740" y="340" as="targetPoint" />
            <Array as="points">
              <mxPoint x="490" y="120" />
            </Array>
          </mxGeometry>
        </mxCell>
        <mxCell id="d27dbhYtVrHB6h_LEnZt-138" value="Имеет" style="edgeLabel;html=1;align=center;verticalAlign=middle;resizable=0;points=[];" parent="d27dbhYtVrHB6h_LEnZt-137" vertex="1" connectable="0">
          <mxGeometry x="0.1509" y="-1" relative="1" as="geometry">
            <mxPoint x="381" y="-361" as="offset" />
          </mxGeometry>
        </mxCell>
        <mxCell id="d27dbhYtVrHB6h_LEnZt-140" style="edgeStyle=orthogonalEdgeStyle;rounded=0;orthogonalLoop=1;jettySize=auto;html=1;exitX=0.5;exitY=1;exitDx=0;exitDy=0;elbow=vertical;entryX=1;entryY=0.5;entryDx=0;entryDy=0;" parent="1" source="d27dbhYtVrHB6h_LEnZt-112" target="d27dbhYtVrHB6h_LEnZt-34" edge="1">
          <mxGeometry relative="1" as="geometry">
            <Array as="points">
              <mxPoint x="431" y="120" />
              <mxPoint x="680" y="120" />
              <mxPoint x="680" y="920" />
            </Array>
          </mxGeometry>
        </mxCell>
        <mxCell id="d27dbhYtVrHB6h_LEnZt-141" value="Имеет" style="edgeLabel;html=1;align=center;verticalAlign=middle;resizable=0;points=[];" parent="d27dbhYtVrHB6h_LEnZt-140" vertex="1" connectable="0">
          <mxGeometry x="-0.2535" relative="1" as="geometry">
            <mxPoint x="-15" y="121" as="offset" />
          </mxGeometry>
        </mxCell>
        <mxCell id="d27dbhYtVrHB6h_LEnZt-112" value="Dota 2" style="ellipse;whiteSpace=wrap;html=1;rounded=0;shadow=1;comic=0;labelBackgroundColor=none;strokeWidth=1;fontFamily=Verdana;fontSize=12;align=center;" parent="1" vertex="1">
          <mxGeometry x="393.13" y="20" width="75" height="50" as="geometry" />
        </mxCell>
        <mxCell id="d27dbhYtVrHB6h_LEnZt-131" value="" style="edgeStyle=orthogonalEdgeStyle;rounded=0;orthogonalLoop=1;jettySize=auto;html=1;curved=1;" parent="1" source="d27dbhYtVrHB6h_LEnZt-127" target="d27dbhYtVrHB6h_LEnZt-130" edge="1">
          <mxGeometry relative="1" as="geometry" />
        </mxCell>
        <mxCell id="d27dbhYtVrHB6h_LEnZt-133" value="Владеет" style="edgeLabel;html=1;align=center;verticalAlign=middle;resizable=0;points=[];" parent="d27dbhYtVrHB6h_LEnZt-131" vertex="1" connectable="0">
          <mxGeometry x="-0.0471" y="-2" relative="1" as="geometry">
            <mxPoint as="offset" />
          </mxGeometry>
        </mxCell>
        <mxCell id="d27dbhYtVrHB6h_LEnZt-127" value="Yasha Lava" style="ellipse;whiteSpace=wrap;html=1;rounded=0;shadow=1;comic=0;labelBackgroundColor=none;strokeWidth=1;fontFamily=Verdana;fontSize=12;align=center;" parent="1" vertex="1">
          <mxGeometry x="90" y="-540" width="90" height="60" as="geometry" />
        </mxCell>
        <mxCell id="O6C4yTjfF4UdwVnjmifp-12" style="edgeStyle=orthogonalEdgeStyle;rounded=0;orthogonalLoop=1;jettySize=auto;html=1;" edge="1" parent="1" source="d27dbhYtVrHB6h_LEnZt-130" target="d27dbhYtVrHB6h_LEnZt-112">
          <mxGeometry relative="1" as="geometry">
            <Array as="points">
              <mxPoint x="288" y="-280" />
              <mxPoint x="431" y="-280" />
            </Array>
          </mxGeometry>
        </mxCell>
        <mxCell id="O6C4yTjfF4UdwVnjmifp-13" style="edgeStyle=orthogonalEdgeStyle;rounded=0;orthogonalLoop=1;jettySize=auto;html=1;" edge="1" parent="1" source="d27dbhYtVrHB6h_LEnZt-130" target="8RMeH3mRlZZ0QeaqOLW2-10">
          <mxGeometry relative="1" as="geometry">
            <Array as="points">
              <mxPoint x="288" y="-280" />
              <mxPoint x="-42" y="-280" />
            </Array>
          </mxGeometry>
        </mxCell>
        <mxCell id="d27dbhYtVrHB6h_LEnZt-130" value="Библиотека" style="ellipse;whiteSpace=wrap;html=1;rounded=0;shadow=1;comic=0;labelBackgroundColor=none;strokeWidth=1;fontFamily=Verdana;fontSize=12;align=center;" parent="1" vertex="1">
          <mxGeometry x="242.5" y="-400" width="90" height="60" as="geometry" />
        </mxCell>
        <mxCell id="8Imb64FayiIJfmBS5_kX-10" style="edgeStyle=orthogonalEdgeStyle;rounded=0;orthogonalLoop=1;jettySize=auto;html=1;exitX=1;exitY=0.5;exitDx=0;exitDy=0;curved=1;entryX=0;entryY=0.5;entryDx=0;entryDy=0;" parent="1" source="8Imb64FayiIJfmBS5_kX-5" target="d27dbhYtVrHB6h_LEnZt-99" edge="1">
          <mxGeometry relative="1" as="geometry" />
        </mxCell>
        <mxCell id="8Imb64FayiIJfmBS5_kX-18" value="Имеет" style="edgeLabel;html=1;align=center;verticalAlign=middle;resizable=0;points=[];" parent="8Imb64FayiIJfmBS5_kX-10" vertex="1" connectable="0">
          <mxGeometry x="-0.1226" y="-4" relative="1" as="geometry">
            <mxPoint as="offset" />
          </mxGeometry>
        </mxCell>
        <mxCell id="8Imb64FayiIJfmBS5_kX-5" value="Roblox" style="ellipse;whiteSpace=wrap;html=1;rounded=0;shadow=1;comic=0;labelBackgroundColor=none;strokeWidth=1;fontFamily=Verdana;fontSize=12;align=center;" parent="1" vertex="1">
          <mxGeometry x="1121" y="-220" width="75" height="50" as="geometry" />
        </mxCell>
        <mxCell id="8Imb64FayiIJfmBS5_kX-15" style="edgeStyle=orthogonalEdgeStyle;rounded=0;orthogonalLoop=1;jettySize=auto;html=1;exitX=0.5;exitY=1;exitDx=0;exitDy=0;entryX=1;entryY=0.5;entryDx=0;entryDy=0;curved=1;" parent="1" source="8Imb64FayiIJfmBS5_kX-13" target="d27dbhYtVrHB6h_LEnZt-102" edge="1">
          <mxGeometry relative="1" as="geometry" />
        </mxCell>
        <mxCell id="8Imb64FayiIJfmBS5_kX-19" value="Имеет" style="edgeLabel;html=1;align=center;verticalAlign=middle;resizable=0;points=[];" parent="8Imb64FayiIJfmBS5_kX-15" vertex="1" connectable="0">
          <mxGeometry x="0.0448" y="-15" relative="1" as="geometry">
            <mxPoint as="offset" />
          </mxGeometry>
        </mxCell>
        <mxCell id="8Imb64FayiIJfmBS5_kX-13" value="RuTracker" style="ellipse;whiteSpace=wrap;html=1;rounded=0;shadow=1;comic=0;labelBackgroundColor=none;strokeWidth=1;fontFamily=Verdana;fontSize=12;align=center;" parent="1" vertex="1">
          <mxGeometry x="1640" y="-200" width="75" height="50" as="geometry" />
        </mxCell>
        <mxCell id="8RMeH3mRlZZ0QeaqOLW2-2" value="Свободное распростр" style="ellipse;whiteSpace=wrap;html=1;rounded=0;shadow=1;comic=0;labelBackgroundColor=none;strokeWidth=1;fontFamily=Verdana;fontSize=12;align=center;" parent="1" vertex="1">
          <mxGeometry x="1120" y="-114" width="76" height="60" as="geometry" />
        </mxCell>
        <mxCell id="8RMeH3mRlZZ0QeaqOLW2-9" value="Factorio" style="ellipse;whiteSpace=wrap;html=1;rounded=0;shadow=1;comic=0;labelBackgroundColor=none;strokeWidth=1;fontFamily=Verdana;fontSize=12;align=center;" parent="1" vertex="1">
          <mxGeometry x="165" y="20" width="75" height="50" as="geometry" />
        </mxCell>
        <mxCell id="O6C4yTjfF4UdwVnjmifp-17" style="edgeStyle=orthogonalEdgeStyle;rounded=0;orthogonalLoop=1;jettySize=auto;html=1;entryX=1;entryY=0.5;entryDx=0;entryDy=0;" edge="1" parent="1" source="8RMeH3mRlZZ0QeaqOLW2-10" target="d27dbhYtVrHB6h_LEnZt-34">
          <mxGeometry relative="1" as="geometry">
            <Array as="points">
              <mxPoint x="-42" y="160" />
              <mxPoint x="680" y="160" />
              <mxPoint x="680" y="920" />
            </Array>
          </mxGeometry>
        </mxCell>
        <mxCell id="8RMeH3mRlZZ0QeaqOLW2-10" value="Minecrft" style="ellipse;whiteSpace=wrap;html=1;rounded=0;shadow=1;comic=0;labelBackgroundColor=none;strokeWidth=1;fontFamily=Verdana;fontSize=12;align=center;" parent="1" vertex="1">
          <mxGeometry x="-80" y="20" width="75" height="50" as="geometry" />
        </mxCell>
        <mxCell id="O6C4yTjfF4UdwVnjmifp-1" value="WoT" style="ellipse;whiteSpace=wrap;html=1;rounded=0;shadow=1;comic=0;labelBackgroundColor=none;strokeWidth=1;fontFamily=Verdana;fontSize=12;align=center;" vertex="1" parent="1">
          <mxGeometry x="280" y="20" width="75" height="50" as="geometry" />
        </mxCell>
        <mxCell id="O6C4yTjfF4UdwVnjmifp-3" value="poppy playtime" style="ellipse;whiteSpace=wrap;html=1;rounded=0;shadow=1;comic=0;labelBackgroundColor=none;strokeWidth=1;fontFamily=Verdana;fontSize=12;align=center;" vertex="1" parent="1">
          <mxGeometry x="40" y="20" width="75" height="50" as="geometry" />
        </mxCell>
        <mxCell id="O6C4yTjfF4UdwVnjmifp-21" style="edgeStyle=orthogonalEdgeStyle;rounded=0;orthogonalLoop=1;jettySize=auto;html=1;entryX=0.5;entryY=1;entryDx=0;entryDy=0;" edge="1" parent="1" source="d27dbhYtVrHB6h_LEnZt-77" target="8RMeH3mRlZZ0QeaqOLW2-9">
          <mxGeometry relative="1" as="geometry">
            <Array as="points">
              <mxPoint x="640" y="685" />
              <mxPoint x="640" y="240" />
              <mxPoint x="200" y="240" />
              <mxPoint x="200" y="70" />
            </Array>
          </mxGeometry>
        </mxCell>
      </root>
    </mxGraphModel>
  </diagram>
</mxfile>
